 <svg xmlns="http://www.w3.org/2000/svg" xmlns:xlink="http://www.w3.org/1999/xlink" style="
    margin: auto;
    background: #ffffff;
    display: block;
    z-index: -9999;
    position: fixed;
    width: 100%;
    height: 100%;
    " preserveAspectRatio="xMidYMid" viewBox="0 0 1280 610">
<g transform=""><path id="path0" d="M 1200.3283165581627 264.56586024236657
c 0 34.836348760158764 -8.523787462592038 10.006185282173263 -18.5299727447653 10.006185282173263
S 1163.2683710686322 299.40220900252535 1163.2683710686322 264.56586024236657
s 8.523787462592038 -10.006185282173263 18.5299727447653 -10.006185282173263
S 1200.3283165581627 229.7295114822078 1200.3283165581627 264.56586024236657
z" fill="none" stroke="none"></path>
<circle cx="0" cy="0" r="7.8990982015285285" fill="#e0ff77">
  <animateMotion begin="-5.417015597020363s" dur="10s" repeatCount="indefinite">
    <mpath xlink:href="#path0"></mpath>
  </animateMotion>
</circle><path id="path1" d="M 440.10852069127543 482.5391667412839
c 0 21.365438215946202 -5.22771360602939 6.136881189686676 -11.364594795716066 6.136881189686676
S 417.3793310998433 503.9046049572301 417.3793310998433 482.5391667412839
s 5.22771360602939 -6.136881189686676 11.364594795716066 -6.136881189686676
S 440.10852069127543 461.1737285253377 440.10852069127543 482.5391667412839
z" fill="none" stroke="none"></path>
<circle cx="0" cy="0" r="6.4142183411479134" fill="#9df871">
  <animateMotion begin="-4.559847032410955s" dur="10s" repeatCount="indefinite">
    <mpath xlink:href="#path1"></mpath>
  </animateMotion>
</circle><path id="path2" d="M 335.3799564306417 141.24136516758986
c 0 34.66059677632767 -8.48078431761209 9.955703329370715 -18.436487646982805 9.955703329370715
S 298.5069811366761 175.90196194391754 298.5069811366761 141.24136516758986
s 8.48078431761209 -9.955703329370715 18.436487646982805 -9.955703329370715
S 335.3799564306417 106.58076839126218 335.3799564306417 141.24136516758986
z" fill="none" stroke="none"></path>
<circle cx="0" cy="0" r="7.799780166549818" fill="#9df871">
  <animateMotion begin="-1.7089118636844747s" dur="10s" repeatCount="indefinite">
    <mpath xlink:href="#path2"></mpath>
  </animateMotion>
</circle><path id="path3" d="M 656.0025999391178 413.55194680630007
c 0 34.737542262792495 -8.499611404725822 9.977804692504227 -18.47741609723005 9.977804692504227
S 619.0477677446577 448.28948906909255 619.0477677446577 413.55194680630007
s 8.499611404725822 -9.977804692504227 18.47741609723005 -9.977804692504227
S 656.0025999391178 378.8144045435076 656.0025999391178 413.55194680630007
z" fill="none" stroke="none"></path>
<circle cx="0" cy="0" r="4.833799764945494" fill="#de9dd6">
  <animateMotion begin="-4.726521564693044s" dur="10s" repeatCount="indefinite">
    <mpath xlink:href="#path3"></mpath>
  </animateMotion>
</circle><path id="path4" d="M 748.3020966103863 10.060575642921213
c 0 19.677479023590323 -4.814702314282738 5.652041847201476 -10.466744161484215 5.652041847201476
S 727.3686082874178 29.738054666511538 727.3686082874178 10.060575642921213
s 4.814702314282738 -5.652041847201476 10.466744161484215 -5.652041847201476
S 748.3020966103863 -9.61690338066911 748.3020966103863 10.060575642921213
z" fill="none" stroke="none"></path>
<circle cx="0" cy="0" r="7.3059157038822065" fill="#9df871">
  <animateMotion begin="-1.6215333128387277s" dur="10s" repeatCount="indefinite">
    <mpath xlink:href="#path4"></mpath>
  </animateMotion>
</circle><path id="path5" d="M 484.4614872081957 207.3560404209647
c 0 23.551563646252784 -5.762616636849085 6.7648108345619695 -12.527427471411055 6.7648108345619695
S 459.4066322653736 230.90760406721748 459.4066322653736 207.3560404209647
s 5.762616636849085 -6.7648108345619695 12.527427471411055 -6.7648108345619695
S 484.4614872081957 183.8044767747119 484.4614872081957 207.3560404209647
z" fill="none" stroke="none"></path>
<circle cx="0" cy="0" r="7.569706284452343" fill="#ff708e">
  <animateMotion begin="-4.8664527599302865s" dur="10s" repeatCount="indefinite">
    <mpath xlink:href="#path5"></mpath>
  </animateMotion>
</circle><path id="path6" d="M 1003.39043256837 321.8871244877087
c 0 20.102345942028858 -4.918659113475146 5.7740780897316935 -10.692737203206839 5.7740780897316935
S 982.0049581619562 341.9894704297376 982.0049581619562 321.8871244877087
s 4.918659113475146 -5.7740780897316935 10.692737203206839 -5.7740780897316935
S 1003.39043256837 301.78477854567984 1003.39043256837 321.8871244877087
z" fill="none" stroke="none"></path>
<circle cx="0" cy="0" r="4.012182073562867" fill="#e0ff77">
  <animateMotion begin="-5.6138668134618435s" dur="10s" repeatCount="indefinite">
    <mpath xlink:href="#path6"></mpath>
  </animateMotion>
</circle><path id="path7" d="M 1062.2555722561801 303.9803230299016
c 0 23.116749826491443 -5.6562260213755655 6.639917503353925 -12.29614352472949 6.639917503353925
S 1037.663285206721 327.0970728563931 1037.663285206721 303.9803230299016
s 5.6562260213755655 -6.639917503353925 12.29614352472949 -6.639917503353925
S 1062.2555722561801 280.86357320341017 1062.2555722561801 303.9803230299016
z" fill="none" stroke="none"></path>
<circle cx="0" cy="0" r="6.48001576319894" fill="#e0ff77">
  <animateMotion begin="-4.540958225175431s" dur="10s" repeatCount="indefinite">
    <mpath xlink:href="#path7"></mpath>
  </animateMotion>
</circle><path id="path8" d="M 124.88601643552306 122.36649970411881
c 0 32.18873018275365 -7.875965895780148 9.24569909504626 -17.12166499082641 9.24569909504626
S 90.64268645387023 154.55522988687247 90.64268645387023 122.36649970411881
s 7.875965895780148 -9.24569909504626 17.12166499082641 -9.24569909504626
S 124.88601643552306 90.17776952136515 124.88601643552306 122.36649970411881
z" fill="none" stroke="none"></path>
<circle cx="0" cy="0" r="6.708982501472778" fill="#9df871">
  <animateMotion begin="-0.9764924514822226s" dur="10s" repeatCount="indefinite">
    <mpath xlink:href="#path8"></mpath>
  </animateMotion>
</circle><path id="path9" d="M 542.2141787093068 170.64710434834475
c 0 31.676289988833666 -7.750581593012491 9.098508826579883 -16.849090419592375 9.098508826579883
S 508.5159978701221 202.32339433717843 508.5159978701221 170.64710434834475
s 7.750581593012491 -9.098508826579883 16.849090419592375 -9.098508826579883
S 542.2141787093068 138.97081435951108 542.2141787093068 170.64710434834475
z" fill="none" stroke="none"></path>
<circle cx="0" cy="0" r="4.3715236640284685" fill="#de9dd6">
  <animateMotion begin="-4.922962561952762s" dur="10s" repeatCount="indefinite">
    <mpath xlink:href="#path9"></mpath>
  </animateMotion>
</circle><path id="path10" d="M 1104.3497584592465 415.1102685005972
c 0 29.63793019915161 -7.251833984898798 8.513022504011634 -15.76485648891043 8.513022504011634
S 1072.8200454814255 444.74819869974885 1072.8200454814255 415.1102685005972
s 7.251833984898798 -8.513022504011634 15.76485648891043 -8.513022504011634
S 1104.3497584592465 385.4723383014456 1104.3497584592465 415.1102685005972
z" fill="none" stroke="none"></path>
<circle cx="0" cy="0" r="4.384552511170316" fill="#e0ff77">
  <animateMotion begin="-7.516231186996627s" dur="10s" repeatCount="indefinite">
    <mpath xlink:href="#path10"></mpath>
  </animateMotion>
</circle><path id="path11" d="M 70.52735196178222 92.04482528028592
c 0 35.97607304312247 -8.80265617012571 10.333552895364965 -19.136209065490675 10.333552895364965
S 32.25493383080086 128.0208983234084 32.25493383080086 92.04482528028592
s 8.80265617012571 -10.333552895364965 19.136209065490675 -10.333552895364965
S 70.52735196178222 56.06875223716345 70.52735196178222 92.04482528028592
z" fill="none" stroke="none"></path>
<circle cx="0" cy="0" r="5.61595417429195" fill="#9df871">
  <animateMotion begin="-0.48396841470149s" dur="10s" repeatCount="indefinite">
    <mpath xlink:href="#path11"></mpath>
  </animateMotion>
</circle><path id="path12" d="M 827.8401952852072 343.5181400325041
c 0 30.572230088359145 -7.480439276938939 8.781385238145711 -16.26182451508465 8.781385238145711
S 795.3165462550379 374.09037012086327 795.3165462550379 343.5181400325041
s 7.480439276938939 -8.781385238145711 16.26182451508465 -8.781385238145711
S 827.8401952852072 312.94590994414494 827.8401952852072 343.5181400325041
z" fill="none" stroke="none"></path>
<circle cx="0" cy="0" r="6.369713899696401" fill="#de9dd6">
  <animateMotion begin="-4.68479904240292s" dur="10s" repeatCount="indefinite">
    <mpath xlink:href="#path12"></mpath>
  </animateMotion>
</circle><path id="path13" d="M 315.8116770968368 414.97837109062164
c 0 25.140621139206193 -6.15142857661428 7.221242242112417 -13.372670818726696 7.221242242112417
S 289.06633545938337 440.1189922298278 289.06633545938337 414.97837109062164
s 6.15142857661428 -7.221242242112417 13.372670818726696 -7.221242242112417
S 315.8116770968368 389.83774995141545 315.8116770968368 414.97837109062164
z" fill="none" stroke="none"></path>
<circle cx="0" cy="0" r="6.3127574858771105" fill="#51cacc">
  <animateMotion begin="-0.2813274588349235s" dur="10s" repeatCount="indefinite">
    <mpath xlink:href="#path13"></mpath>
  </animateMotion>
</circle><path id="path14" d="M 110.58422032560684 178.6883161576054
c 0 23.33291592920712 -5.709117727359189 6.702007766899919 -12.411125494259107 6.702007766899919
S 85.76196933708862 202.02123208681255 85.76196933708862 178.6883161576054
s 5.709117727359189 -6.702007766899919 12.411125494259107 -6.702007766899919
S 110.58422032560684 155.35540022839828 110.58422032560684 178.6883161576054
z" fill="none" stroke="none"></path>
<circle cx="0" cy="0" r="4.460841799340224" fill="#51cacc">
  <animateMotion begin="-5.547996905896355s" dur="10s" repeatCount="indefinite">
    <mpath xlink:href="#path14"></mpath>
  </animateMotion>
</circle><path id="path15" d="M 743.3776012090461 190.81071792623388
c 0 36.39176719300876 -8.904368568502143 10.452954406502517 -19.35732297500466 10.452954406502517
S 704.6629552590368 227.20248511924262 704.6629552590368 190.81071792623388
s 8.904368568502143 -10.452954406502517 19.35732297500466 -10.452954406502517
S 743.3776012090461 154.41895073322513 743.3776012090461 190.81071792623388
z" fill="none" stroke="none"></path>
<circle cx="0" cy="0" r="7.5133165268157125" fill="#ff708e">
  <animateMotion begin="-3.9207848697289482s" dur="10s" repeatCount="indefinite">
    <mpath xlink:href="#path15"></mpath>
  </animateMotion>
</circle><path id="path16" d="M 803.7872458375936 170.04010789706774
c 0 31.129150637960915 -7.616707070990436 8.941351778988773 -16.558058849979208 8.941351778988773
S 770.671128137635 201.16925853502866 770.671128137635 170.04010789706774
s 7.616707070990436 -8.941351778988773 16.558058849979208 -8.941351778988773
S 803.7872458375936 138.91095725910682 803.7872458375936 170.04010789706774
z" fill="none" stroke="none"></path>
<circle cx="0" cy="0" r="6.197443737097493" fill="#de9dd6">
  <animateMotion begin="-4.815512452387322s" dur="10s" repeatCount="indefinite">
    <mpath xlink:href="#path16"></mpath>
  </animateMotion>
</circle><path id="path17" d="M 530.3312911544748 549.3545105464979
c 0 35.44602601359119 -8.67296381183614 10.181305344329383 -18.854269156165525 10.181305344329383
S 492.62275284214377 584.8005365600891 492.62275284214377 549.3545105464979
s 8.67296381183614 -10.181305344329383 18.854269156165525 -10.181305344329383
S 530.3312911544748 513.9084845329066 530.3312911544748 549.3545105464979
z" fill="none" stroke="none"></path>
<circle cx="0" cy="0" r="5.5388433475847485" fill="#e0ff77">
  <animateMotion begin="-8.373991661932019s" dur="10s" repeatCount="indefinite">
    <mpath xlink:href="#path17"></mpath>
  </animateMotion>
</circle><path id="path18" d="M 742.6806061938028 10.479261544573887
c 0 33.47853834730694 -8.191557255192121 9.616175908269014 -17.807733163461133 9.616175908269014
S 707.0651398668806 43.957799891880825 707.0651398668806 10.479261544573887
s 8.191557255192121 -9.616175908269014 17.807733163461133 -9.616175908269014
S 742.6806061938028 -22.99927680273305 742.6806061938028 10.479261544573887
z" fill="none" stroke="none"></path>
<circle cx="0" cy="0" r="4.6438864202037" fill="#de9dd6">
  <animateMotion begin="-1.786218578340526s" dur="10s" repeatCount="indefinite">
    <mpath xlink:href="#path18"></mpath>
  </animateMotion>
</circle><path id="path19" d="M 232.16890449654557 325.0152765645713
c 0 33.48054461493318 -8.192048150462373 9.616752176629744 -17.80880032709212 9.616752176629744
S 196.55130384236134 358.4958211795045 196.55130384236134 325.0152765645713
s 8.192048150462373 -9.616752176629744 17.80880032709212 -9.616752176629744
S 232.16890449654557 291.5347319496381 232.16890449654557 325.0152765645713
z" fill="none" stroke="none"></path>
<circle cx="0" cy="0" r="6.852006827662764" fill="#e0ff77">
  <animateMotion begin="-2.3143739735592717s" dur="10s" repeatCount="indefinite">
    <mpath xlink:href="#path19"></mpath>
  </animateMotion>
</circle><path id="path20" d="M 286.98738877629455 224.5817951611181
c 0 33.86034641307063 -8.284978377666217 9.725844182477735 -18.010822560143954 9.725844182477735
S 250.96574365600665 258.4421415741887 250.96574365600665 224.5817951611181
s 8.284978377666217 -9.725844182477735 18.010822560143954 -9.725844182477735
S 286.98738877629455 190.72144874804746 286.98738877629455 224.5817951611181
z" fill="none" stroke="none"></path>
<circle cx="0" cy="0" r="4.05878556839028" fill="#ff708e">
  <animateMotion begin="-0.8794361264653761s" dur="10s" repeatCount="indefinite">
    <mpath xlink:href="#path20"></mpath>
  </animateMotion>
</circle><path id="path21" d="M 654.5210272072239 41.26982023580856
c 0 20.328244528669597 -4.973932171908518 5.838963853979566 -10.812896025888083 5.838963853979566
S 632.8952351554477 61.59806476447815 632.8952351554477 41.26982023580856
s 4.973932171908518 -5.838963853979566 10.812896025888083 -5.838963853979566
S 654.5210272072239 20.941575707138963 654.5210272072239 41.26982023580856
z" fill="none" stroke="none"></path>
<circle cx="0" cy="0" r="7.782281819597277" fill="#ff708e">
  <animateMotion begin="-4.988652398427518s" dur="10s" repeatCount="indefinite">
    <mpath xlink:href="#path21"></mpath>
  </animateMotion>
</circle><path id="path22" d="M 1083.3056751285578 486.59053254978977
c 0 31.104602801859954 -7.610700685561477 8.934300804789562 -16.54500149035104 8.934300804789562
S 1050.2156721478557 517.6951353516497 1050.2156721478557 486.59053254978977
s 7.610700685561477 -8.934300804789562 16.54500149035104 -8.934300804789562
S 1083.3056751285578 455.48592974792984 1083.3056751285578 486.59053254978977
z" fill="none" stroke="none"></path>
<circle cx="0" cy="0" r="5.436644896950347" fill="#ff708e">
  <animateMotion begin="-3.1291094962360555s" dur="10s" repeatCount="indefinite">
    <mpath xlink:href="#path22"></mpath>
  </animateMotion>
</circle><path id="path23" d="M 188.47268924401172 117.55858048004697
c 0 26.544844363564916 -6.495015110233967 7.62458295549205 -14.119598065726018 7.62458295549205
S 160.23349311255967 144.1034248436119 160.23349311255967 117.55858048004697
s 6.495015110233967 -7.62458295549205 14.119598065726018 -7.62458295549205
S 188.47268924401172 91.01373611648205 188.47268924401172 117.55858048004697
z" fill="none" stroke="none"></path>
<circle cx="0" cy="0" r="5.601807164406951" fill="#e0ff77">
  <animateMotion begin="-2.877477726300801s" dur="10s" repeatCount="indefinite">
    <mpath xlink:href="#path23"></mpath>
  </animateMotion>
</circle><path id="path24" d="M 483.5021911283947 347.1449283274394
c 0 26.290490402857344 -6.432779566656583 7.551523839118599 -13.984303405775183 7.551523839118599
S 455.5335843168444 373.43541873029676 455.5335843168444 347.1449283274394
s 6.432779566656583 -7.551523839118599 13.984303405775183 -7.551523839118599
S 483.5021911283947 320.85443792458204 483.5021911283947 347.1449283274394
z" fill="none" stroke="none"></path>
<circle cx="0" cy="0" r="5.576187360034528" fill="#9df871">
  <animateMotion begin="-9.65649988811694s" dur="10s" repeatCount="indefinite">
    <mpath xlink:href="#path24"></mpath>
  </animateMotion>
</circle><path id="path25" d="M 936.0433800127524 280.5562439868342
c 0 22.142715586178497 -5.417898494490482 6.360141710923611 -11.778040205414094 6.360141710923611
S 912.4872996019243 302.6989595730127 912.4872996019243 280.5562439868342
s 5.417898494490482 -6.360141710923611 11.778040205414094 -6.360141710923611
S 936.0433800127524 258.4135284006557 936.0433800127524 280.5562439868342
z" fill="none" stroke="none"></path>
<circle cx="0" cy="0" r="5.682164878974672" fill="#ff708e">
  <animateMotion begin="-7.887877250274904s" dur="10s" repeatCount="indefinite">
    <mpath xlink:href="#path25"></mpath>
  </animateMotion>
</circle><path id="path26" d="M 776.5760270861819 150.90040701143548
c 0 24.992358287594357 -6.115151495900745 7.178656103883485 -13.29380759978423 7.178656103883485
S 749.9884118866133 175.89276529902983 749.9884118866133 150.90040701143548
s 6.115151495900745 -7.178656103883485 13.29380759978423 -7.178656103883485
S 776.5760270861819 125.90804872384112 776.5760270861819 150.90040701143548
z" fill="none" stroke="none"></path>
<circle cx="0" cy="0" r="4.354862641447221" fill="#de9dd6">
  <animateMotion begin="-9.692156755659893s" dur="10s" repeatCount="indefinite">
    <mpath xlink:href="#path26"></mpath>
  </animateMotion>
</circle><path id="path27" d="M 671.9830425837281 119.73043022631806
c 0 28.58214115449717 -6.993502622908881 8.209763948632165 -15.203266571541047 8.209763948632165
S 641.5765094406461 148.31257138081523 641.5765094406461 119.73043022631806
s 6.993502622908881 -8.209763948632165 15.203266571541047 -8.209763948632165
S 671.9830425837281 91.1482890718209 671.9830425837281 119.73043022631806
z" fill="none" stroke="none"></path>
<circle cx="0" cy="0" r="7.535815742455293" fill="#51cacc">
  <animateMotion begin="-9.448330713249632s" dur="10s" repeatCount="indefinite">
    <mpath xlink:href="#path27"></mpath>
  </animateMotion>
</circle><path id="path28" d="M 303.76023959763967 528.4643088517319
c 0 27.008584142119542 -6.608483353922866 7.757784806779017 -14.366268160701882 7.757784806779017
S 275.02770327623585 555.4728929938514 275.02770327623585 528.4643088517319
s 6.608483353922866 -7.757784806779017 14.366268160701882 -7.757784806779017
S 303.76023959763967 501.4557247096123 303.76023959763967 528.4643088517319
z" fill="none" stroke="none"></path>
<circle cx="0" cy="0" r="6.010386546272514" fill="#51cacc">
  <animateMotion begin="-3.6270734401185734s" dur="10s" repeatCount="indefinite">
    <mpath xlink:href="#path28"></mpath>
  </animateMotion>
</circle><path id="path29" d="M 556.4832396951714 62.72602986714133
c 0 28.824443146212378 -7.052789280456219 8.279361329231214 -15.332150609687433 8.279361329231214
S 525.8189384757965 91.55047301335371 525.8189384757965 62.72602986714133
s 7.052789280456219 -8.279361329231214 15.332150609687433 -8.279361329231214
S 556.4832396951714 33.90158672092895 556.4832396951714 62.72602986714133
z" fill="none" stroke="none"></path>
<circle cx="0" cy="0" r="6.702436335204409" fill="#e0ff77">
  <animateMotion begin="-8.667010860213773s" dur="10s" repeatCount="indefinite">
    <mpath xlink:href="#path29"></mpath>
  </animateMotion>
</circle></g>
</svg>